<svg width="1278" height="469" viewBox="0 0 1278 469" fill="none" xmlns="http://www.w3.org/2000/svg">
<path d="M864.949 358.455V299.905L1089.39 6.50586H1179.82L958.629 299.905L916.343 286.894H1277.4V358.455H864.949ZM1114.76 461.893V358.455L1117.36 286.894V195.166H1196.73V461.893H1114.76Z" fill="white"/>
<path d="M864.949 358.455V299.905L1089.39 6.50586H1179.82L958.629 299.905L916.343 286.894H1277.4V358.455H864.949ZM1114.76 461.893V358.455L1117.36 286.894V195.166H1196.73V461.893H1114.76Z" fill="url(#paint0_linear_4639_2118)"/>
<path d="M630.848 468.398C594.851 468.398 562.323 459.29 533.265 441.075C504.641 422.859 482.088 396.403 465.608 361.707C449.127 326.577 440.887 284.075 440.887 234.199C440.887 184.323 449.127 142.037 465.608 107.341C482.088 72.2113 504.641 45.5387 533.265 27.3232C562.323 9.10775 594.851 0 630.848 0C667.279 0 699.807 9.10775 728.431 27.3232C757.055 45.5387 779.608 72.2113 796.088 107.341C813.003 142.037 821.46 184.323 821.46 234.199C821.46 284.075 813.003 326.577 796.088 361.707C779.608 396.403 757.055 422.859 728.431 441.075C699.807 459.29 667.279 468.398 630.848 468.398ZM630.848 394.885C652.099 394.885 670.532 389.247 686.145 377.971C701.758 366.261 713.902 348.479 722.576 324.626C731.684 300.772 736.237 270.63 736.237 234.199C736.237 197.334 731.684 167.192 722.576 143.772C713.902 119.919 701.758 102.354 686.145 91.0773C670.532 79.3674 652.099 73.5125 630.848 73.5125C610.464 73.5125 592.249 79.3674 576.202 91.0773C560.588 102.354 548.228 119.919 539.12 143.772C530.446 167.192 526.109 197.334 526.109 234.199C526.109 270.63 530.446 300.772 539.12 324.626C548.228 348.479 560.588 366.261 576.202 377.971C592.249 389.247 610.464 394.885 630.848 394.885Z" fill="white"/>
<path d="M630.848 468.398C594.851 468.398 562.323 459.29 533.265 441.075C504.641 422.859 482.088 396.403 465.608 361.707C449.127 326.577 440.887 284.075 440.887 234.199C440.887 184.323 449.127 142.037 465.608 107.341C482.088 72.2113 504.641 45.5387 533.265 27.3232C562.323 9.10775 594.851 0 630.848 0C667.279 0 699.807 9.10775 728.431 27.3232C757.055 45.5387 779.608 72.2113 796.088 107.341C813.003 142.037 821.46 184.323 821.46 234.199C821.46 284.075 813.003 326.577 796.088 361.707C779.608 396.403 757.055 422.859 728.431 441.075C699.807 459.29 667.279 468.398 630.848 468.398ZM630.848 394.885C652.099 394.885 670.532 389.247 686.145 377.971C701.758 366.261 713.902 348.479 722.576 324.626C731.684 300.772 736.237 270.63 736.237 234.199C736.237 197.334 731.684 167.192 722.576 143.772C713.902 119.919 701.758 102.354 686.145 91.0773C670.532 79.3674 652.099 73.5125 630.848 73.5125C610.464 73.5125 592.249 79.3674 576.202 91.0773C560.588 102.354 548.228 119.919 539.12 143.772C530.446 167.192 526.109 197.334 526.109 234.199C526.109 270.63 530.446 300.772 539.12 324.626C548.228 348.479 560.588 366.261 576.202 377.971C592.249 389.247 610.464 394.885 630.848 394.885Z" fill="url(#paint1_linear_4639_2118)"/>
<path d="M0 358.455V299.905L224.441 6.50586H314.867L93.6795 299.905L51.3936 286.894H412.45V358.455H0ZM249.812 461.893V358.455L252.414 286.894V195.166H331.782V461.893H249.812Z" fill="white"/>
<path d="M0 358.455V299.905L224.441 6.50586H314.867L93.6795 299.905L51.3936 286.894H412.45V358.455H0ZM249.812 461.893V358.455L252.414 286.894V195.166H331.782V461.893H249.812Z" fill="url(#paint2_linear_4639_2118)"/>
<defs>
<linearGradient id="paint0_linear_4639_2118" x1="851.496" y1="-52.5965" x2="936.21" y2="706.126" gradientUnits="userSpaceOnUse">
<stop stop-color="#6552D0"/>
<stop offset="0.0526316" stop-color="#664FCD"/>
<stop offset="0.105263" stop-color="#674DCB"/>
<stop offset="0.157895" stop-color="#6D55CB"/>
<stop offset="0.210526" stop-color="#8569C0"/>
<stop offset="0.263158" stop-color="#9D82AD"/>
<stop offset="0.315789" stop-color="#B09C9A"/>
<stop offset="0.368421" stop-color="#BFB684"/>
<stop offset="0.421053" stop-color="#CACF6D"/>
<stop offset="0.473684" stop-color="#D0DD5C"/>
<stop offset="0.526316" stop-color="#D2E156"/>
<stop offset="0.578947" stop-color="#D4E550"/>
<stop offset="0.631579" stop-color="#D5E94A"/>
<stop offset="0.684211" stop-color="#D7ED43"/>
<stop offset="0.736842" stop-color="#D8EF42"/>
<stop offset="0.789474" stop-color="#D8EF47"/>
<stop offset="0.842105" stop-color="#D8EF4E"/>
<stop offset="0.894737" stop-color="#D9EF55"/>
<stop offset="0.947368" stop-color="#D9EE5B"/>
<stop offset="1" stop-color="#D9EE61"/>
</linearGradient>
<linearGradient id="paint1_linear_4639_2118" x1="851.497" y1="-52.5968" x2="936.211" y2="706.125" gradientUnits="userSpaceOnUse">
<stop stop-color="#6552D0"/>
<stop offset="0.0526316" stop-color="#664FCD"/>
<stop offset="0.105263" stop-color="#674DCB"/>
<stop offset="0.157895" stop-color="#6D55CB"/>
<stop offset="0.210526" stop-color="#8569C0"/>
<stop offset="0.263158" stop-color="#9D82AD"/>
<stop offset="0.315789" stop-color="#B09C9A"/>
<stop offset="0.368421" stop-color="#BFB684"/>
<stop offset="0.421053" stop-color="#CACF6D"/>
<stop offset="0.473684" stop-color="#D0DD5C"/>
<stop offset="0.526316" stop-color="#D2E156"/>
<stop offset="0.578947" stop-color="#D4E550"/>
<stop offset="0.631579" stop-color="#D5E94A"/>
<stop offset="0.684211" stop-color="#D7ED43"/>
<stop offset="0.736842" stop-color="#D8EF42"/>
<stop offset="0.789474" stop-color="#D8EF47"/>
<stop offset="0.842105" stop-color="#D8EF4E"/>
<stop offset="0.894737" stop-color="#D9EF55"/>
<stop offset="0.947368" stop-color="#D9EE5B"/>
<stop offset="1" stop-color="#D9EE61"/>
</linearGradient>
<linearGradient id="paint2_linear_4639_2118" x1="851.496" y1="-52.5965" x2="936.211" y2="706.126" gradientUnits="userSpaceOnUse">
<stop stop-color="#6552D0"/>
<stop offset="0.0526316" stop-color="#664FCD"/>
<stop offset="0.105263" stop-color="#674DCB"/>
<stop offset="0.157895" stop-color="#6D55CB"/>
<stop offset="0.210526" stop-color="#8569C0"/>
<stop offset="0.263158" stop-color="#9D82AD"/>
<stop offset="0.315789" stop-color="#B09C9A"/>
<stop offset="0.368421" stop-color="#BFB684"/>
<stop offset="0.421053" stop-color="#CACF6D"/>
<stop offset="0.473684" stop-color="#D0DD5C"/>
<stop offset="0.526316" stop-color="#D2E156"/>
<stop offset="0.578947" stop-color="#D4E550"/>
<stop offset="0.631579" stop-color="#D5E94A"/>
<stop offset="0.684211" stop-color="#D7ED43"/>
<stop offset="0.736842" stop-color="#D8EF42"/>
<stop offset="0.789474" stop-color="#D8EF47"/>
<stop offset="0.842105" stop-color="#D8EF4E"/>
<stop offset="0.894737" stop-color="#D9EF55"/>
<stop offset="0.947368" stop-color="#D9EE5B"/>
<stop offset="1" stop-color="#D9EE61"/>
</linearGradient>
</defs>
</svg>
