<svg width="163" height="129" viewBox="0 0 163 129" fill="none" xmlns="http://www.w3.org/2000/svg">
<path d="M144.203 0.0288813C145.53 -0.150783 146.64 0.518146 147.241 1.46209C147.834 2.39521 147.977 3.66195 147.385 4.79274C143.962 11.3241 138.261 23.9418 134.875 33.5292C134.805 33.7271 134.831 33.9003 134.886 34.0067C134.933 34.0981 135.003 34.1557 135.124 34.175C137.767 34.5995 142.114 34.3541 146.398 32.9977C150.684 31.641 154.708 29.2371 156.943 25.5119C157.581 24.4488 158.67 23.7051 159.81 23.7192C160.407 23.7268 161.028 23.9543 161.477 24.481C161.917 24.9958 162.077 25.6592 162.055 26.3295C161.838 32.9864 157.886 42.3135 151.899 48.8223C148.89 52.0926 145.297 54.7312 141.303 55.9325C140.895 56.055 140.484 56.1612 140.07 56.2526C140.519 59.3193 140.736 62.499 140.72 65.7909C140.629 83.9978 134.063 99.192 121.035 111.284L121.034 111.285C108.379 123.005 91.3352 128.75 70.0492 128.644C49.1516 128.54 32.1801 122.619 19.2559 110.789C6.3462 98.9714 -0.0862261 84.3071 0.000757965 66.8759C0.087973 49.4449 6.66622 34.8455 19.6931 23.1577C32.7347 11.4569 49.7646 5.70726 70.662 5.81148C87.5122 5.89568 101.811 9.63147 113.497 17.071C118.43 11.6768 128.83 2.1131 144.203 0.0288813ZM107.558 34.734C98.1055 26.3877 85.7139 22.2268 70.5043 22.1508C55.2751 22.0749 42.8311 26.2663 33.2933 34.8233C23.7703 43.3674 18.956 54.0521 18.8922 66.796C18.8525 74.7549 20.674 81.9295 24.3459 88.2991C41.7995 38.8719 94.7903 19.6951 114.066 52.3921C117.989 59.0454 120.398 65.2518 121.355 71.5615C121.557 69.7565 121.666 67.9067 121.676 66.0128C121.739 53.2665 117.028 42.8044 107.559 34.7331L107.558 34.734ZM33.1088 36.6645C33.1584 36.6175 33.2078 36.5691 33.2577 36.5222C33.2872 36.4945 33.3181 36.4671 33.3477 36.4394C33.2678 36.5141 33.1879 36.5895 33.1088 36.6645ZM34.9112 35.0373C34.9375 35.0148 34.9641 34.9918 34.9904 34.9694C35.0318 34.9341 35.0747 34.8997 35.1162 34.8646C35.0482 34.9222 34.9789 34.9793 34.9112 35.0373Z" fill="#6552D0"/>
<path d="M144.203 0.0288813C145.53 -0.150783 146.64 0.518146 147.241 1.46209C147.834 2.39521 147.977 3.66195 147.385 4.79274C143.962 11.3241 138.261 23.9418 134.875 33.5292C134.805 33.7271 134.831 33.9003 134.886 34.0067C134.933 34.0981 135.003 34.1557 135.124 34.175C137.767 34.5995 142.114 34.3541 146.398 32.9977C150.684 31.641 154.708 29.2371 156.943 25.5119C157.581 24.4488 158.67 23.7051 159.81 23.7192C160.407 23.7268 161.028 23.9543 161.477 24.481C161.917 24.9958 162.077 25.6592 162.055 26.3295C161.838 32.9864 157.886 42.3135 151.899 48.8223C148.89 52.0926 145.297 54.7312 141.303 55.9325C140.895 56.055 140.484 56.1612 140.07 56.2526C140.519 59.3193 140.736 62.499 140.72 65.7909C140.629 83.9978 134.063 99.192 121.035 111.284L121.034 111.285C108.379 123.005 91.3352 128.75 70.0492 128.644C49.1516 128.54 32.1801 122.619 19.2559 110.789C6.3462 98.9714 -0.0862261 84.3071 0.000757965 66.8759C0.087973 49.4449 6.66622 34.8455 19.6931 23.1577C32.7347 11.4569 49.7646 5.70726 70.662 5.81148C87.5122 5.89568 101.811 9.63147 113.497 17.071C118.43 11.6768 128.83 2.1131 144.203 0.0288813ZM107.558 34.734C98.1055 26.3877 85.7139 22.2268 70.5043 22.1508C55.2751 22.0749 42.8311 26.2663 33.2933 34.8233C23.7703 43.3674 18.956 54.0521 18.8922 66.796C18.8525 74.7549 20.674 81.9295 24.3459 88.2991C41.7995 38.8719 94.7903 19.6951 114.066 52.3921C117.989 59.0454 120.398 65.2518 121.355 71.5615C121.557 69.7565 121.666 67.9067 121.676 66.0128C121.739 53.2665 117.028 42.8044 107.559 34.7331L107.558 34.734ZM33.1088 36.6645C33.1584 36.6175 33.2078 36.5691 33.2577 36.5222C33.2872 36.4945 33.3181 36.4671 33.3477 36.4394C33.2678 36.5141 33.1879 36.5895 33.1088 36.6645ZM34.9112 35.0373C34.9375 35.0148 34.9641 34.9918 34.9904 34.9694C35.0318 34.9341 35.0747 34.8997 35.1162 34.8646C35.0482 34.9222 34.9789 34.9793 34.9112 35.0373Z" fill="url(#paint0_linear_4403_3562)"/>
<defs>
<linearGradient id="paint0_linear_4403_3562" x1="67.5949" y1="-3.51643" x2="35.0089" y2="112.501" gradientUnits="userSpaceOnUse">
<stop stop-color="#6552D0"/>
<stop offset="0.0526316" stop-color="#664FCD"/>
<stop offset="0.105263" stop-color="#674DCB"/>
<stop offset="0.157895" stop-color="#6D55CB"/>
<stop offset="0.210526" stop-color="#8569C0"/>
<stop offset="0.263158" stop-color="#9D82AD"/>
<stop offset="0.315789" stop-color="#B09C9A"/>
<stop offset="0.368421" stop-color="#BFB684"/>
<stop offset="0.421053" stop-color="#CACF6D"/>
<stop offset="0.473684" stop-color="#D0DD5C"/>
<stop offset="0.526316" stop-color="#D2E156"/>
<stop offset="0.578947" stop-color="#D4E550"/>
<stop offset="0.631579" stop-color="#D5E94A"/>
<stop offset="0.684211" stop-color="#D7ED43"/>
<stop offset="0.736842" stop-color="#D8EF42"/>
<stop offset="0.789474" stop-color="#D8EF47"/>
<stop offset="0.842105" stop-color="#D8EF4E"/>
<stop offset="0.894737" stop-color="#D9EF55"/>
<stop offset="0.947368" stop-color="#D9EE5B"/>
<stop offset="1" stop-color="#D9EE61"/>
</linearGradient>
</defs>
</svg>
