<svg width="36" height="36" viewBox="0 0 36 36" fill="none" xmlns="http://www.w3.org/2000/svg">
<path d="M18.4492 0C19.5083 7.21445e-06 20.3672 0.858899 20.3672 1.91797V15.9805H33.8779C34.937 15.9805 35.7959 16.8394 35.7959 17.8984C35.7958 18.9574 34.9369 19.8154 33.8779 19.8154H20.3672V33.8779C20.3672 34.937 19.5083 35.7959 18.4492 35.7959C17.3901 35.7959 16.5312 34.937 16.5312 33.8779V19.8154H1.91797C0.858986 19.8154 0.000148395 18.9574 0 17.8984C0 16.8394 0.858895 15.9805 1.91797 15.9805H16.5312V1.91797C16.5312 0.858895 17.3901 0 18.4492 0Z" fill="#0E0E0E"/>
</svg>
